<svg xmlns="http://www.w3.org/2000/svg" xmlns:xlink="http://www.w3.org/1999/xlink" width="1080" zoomAndPan="magnify" viewBox="0 0 810 809.999993" height="1080" preserveAspectRatio="xMidYMid meet" version="1.2"><defs><clipPath id="8591936670"><path d="M 185.113281 66 L 202 66 L 202 85 L 185.113281 85 Z M 185.113281 66 "/></clipPath><clipPath id="b8a2735ac3"><path d="M 194 61 L 632.863281 61 L 632.863281 804 L 194 804 Z M 194 61 "/></clipPath></defs><g id="4c927cd78e"><path style=" stroke:none;fill-rule:nonzero;fill:#ffffff;fill-opacity:1;" d="M 242.058594 32.878906 C 242.765625 34.148438 243.1875 36.40625 244.171875 37.390625 C 245.300781 38.519531 245.019531 37.953125 246.289062 37.8125 C 247.980469 37.53125 250.234375 36.121094 251.925781 36.40625 C 254.179688 36.6875 255.871094 39.222656 257.28125 40.773438 C 258.832031 42.464844 259.960938 44.578125 262.074219 45.707031 C 263.90625 46.835938 266.304688 47.398438 268.277344 48.527344 C 270.25 49.652344 278.144531 56.5625 279.269531 55.996094 C 279.554688 52.894531 273.914062 48.808594 272.082031 46.269531 C 269.96875 43.3125 270.53125 40.351562 272.082031 37.25 C 273.914062 33.585938 275.464844 34.289062 279.128906 33.585938 C 280.679688 33.304688 283.921875 30.765625 285.894531 30.765625 C 286.601562 30.765625 287.164062 31.046875 287.445312 31.894531 C 288.433594 34.429688 283.921875 35.839844 283.5 37.390625 C 282.9375 38.660156 282.371094 39.929688 281.808594 41.339844 C 280.539062 40.773438 279.128906 40.070312 277.863281 39.503906 C 276.734375 36.828125 274.480469 39.648438 274.480469 41.339844 C 274.335938 43.875 276.171875 46.835938 278.285156 48.246094 C 280.820312 50.078125 283.21875 51.910156 285.753906 53.882812 C 287.304688 55.011719 293.507812 59.945312 292.097656 54.871094 C 291.394531 52.332031 286.742188 48.667969 291.109375 47.398438 C 293.226562 46.835938 295.199219 48.105469 297.171875 48.949219 C 299.992188 50.21875 302.808594 51.203125 305.347656 52.894531 C 310.421875 56.136719 314.933594 60.507812 320.429688 63.1875 C 324.660156 65.300781 327.335938 68.964844 331.140625 71.644531 C 333.679688 73.476562 334.101562 72.910156 336.921875 72.628906 C 339.175781 72.347656 341.433594 73.757812 343.6875 74.179688 C 346.648438 74.886719 347.492188 75.449219 348.621094 72.628906 C 348.902344 71.925781 349.324219 71.5 349.746094 70.9375 C 351.863281 72.347656 354.539062 73.617188 356.230469 74.460938 C 361.164062 77.140625 366.097656 79.394531 370.75 82.496094 C 374.695312 85.035156 379.066406 86.867188 382.730469 89.683594 C 384.703125 91.234375 389.214844 94.476562 391.753906 94.195312 C 391.753906 92.222656 389.917969 90.8125 388.652344 89.542969 C 385.128906 86.300781 381.320312 84.609375 377.515625 81.652344 C 373.144531 78.410156 368.777344 75.871094 364.828125 72.066406 C 352.707031 60.648438 338.472656 51.488281 327.054688 39.222656 C 325.082031 37.109375 323.109375 34.429688 320.851562 32.597656 C 319.726562 31.753906 318.457031 31.332031 317.328125 30.484375 C 316.058594 29.496094 315.074219 27.949219 314.085938 26.679688 C 312.675781 24.707031 311.550781 22.871094 310.421875 20.757812 C 309.433594 18.785156 309.011719 17.09375 308.308594 14.980469 C 305.207031 6.242188 295.339844 12.867188 289.136719 13.148438 C 286.179688 13.289062 283.21875 11.316406 283.5 15.402344 C 283.5 16.390625 283.78125 17.09375 284.0625 17.65625 C 284.769531 18.785156 286.179688 19.066406 287.871094 19.773438 C 290.125 20.617188 292.519531 21.324219 295.058594 21.464844 C 297.453125 21.605469 299.851562 21.324219 302.246094 22.167969 C 306.476562 23.71875 309.574219 27.804688 311.550781 31.753906 C 313.804688 36.546875 318.738281 39.082031 322.683594 42.324219 C 326.492188 45.425781 330.296875 48.527344 333.679688 52.191406 C 335.652344 54.304688 338.753906 57.96875 340.867188 58.816406 C 341.574219 59.804688 342.277344 60.789062 342.980469 61.777344 C 341.289062 60.929688 339.597656 60.367188 337.90625 59.804688 C 335.230469 58.957031 332.128906 57.125 330.015625 55.292969 C 327.617188 53.179688 326.347656 51.203125 323.390625 50.21875 C 321.132812 49.511719 318.316406 48.386719 316.625 46.695312 C 314.933594 44.863281 313.242188 41.902344 311.832031 39.789062 C 309.574219 36.40625 305.488281 29.640625 301.117188 29.074219 C 299.425781 28.792969 298.863281 30.34375 297.171875 30.203125 C 295.621094 30.0625 294.777344 27.949219 293.648438 27.242188 C 291.253906 25.832031 288.574219 26.960938 286.035156 26.820312 C 285.753906 26.820312 285.472656 26.820312 285.332031 26.679688 C 281.386719 25.832031 281.808594 20.757812 280.257812 17.796875 C 279.554688 16.671875 278.566406 15.824219 276.875 15.964844 C 273.492188 16.105469 270.671875 17.09375 267.429688 15.542969 C 264.613281 13.992188 262.355469 13.710938 259.253906 14.839844 C 255.871094 15.964844 252.773438 17.515625 249.53125 19.066406 C 246.570312 20.476562 239.382812 22.167969 239.945312 26.539062 C 239.523438 28.652344 241.074219 31.1875 242.058594 32.878906 Z M 242.058594 32.878906 "/><path style=" stroke:none;fill-rule:nonzero;fill:#ffffff;fill-opacity:1;" d="M 231.207031 36.546875 C 231.207031 36.40625 231.207031 36.40625 231.066406 36.40625 C 232.332031 36.40625 233.601562 36.261719 234.871094 36.261719 C 235.011719 34.855469 234.730469 33.445312 234.589844 31.894531 C 234.449219 29.921875 235.011719 26.539062 233.179688 25.410156 C 230.5 23.71875 230.5 26.539062 230.21875 28.089844 C 229.65625 30.203125 225.851562 36.828125 231.207031 36.546875 Z M 231.207031 36.546875 "/><path style=" stroke:none;fill-rule:nonzero;fill:#ffffff;fill-opacity:1;" d="M 220.351562 39.503906 C 221.761719 37.53125 221.339844 35.277344 219.648438 33.867188 C 218.660156 34.996094 217.675781 36.121094 216.6875 37.390625 C 217.535156 38.660156 217.957031 42.746094 220.351562 39.503906 Z M 220.351562 39.503906 "/><path style=" stroke:none;fill-rule:nonzero;fill:#ffffff;fill-opacity:1;" d="M 209.921875 45.285156 C 210.484375 47.398438 212.035156 47.398438 213.164062 45.707031 C 214.996094 43.171875 214.152344 40.492188 212.035156 38.800781 C 211.332031 39.929688 210.484375 41.054688 209.921875 42.183594 C 210.0625 42.746094 209.78125 44.722656 209.921875 45.285156 Z M 209.921875 45.285156 "/><g clip-rule="nonzero" clip-path="url(#8591936670)"><path style=" stroke:none;fill-rule:nonzero;fill:#ffffff;fill-opacity:1;" d="M 200.054688 84.328125 C 202.875 82.917969 200.902344 74.601562 198.929688 73.050781 C 197.519531 71.925781 195.261719 72.769531 193.851562 71.644531 C 192.867188 70.796875 192.726562 69.527344 192.019531 68.542969 C 190.1875 65.863281 186.242188 64.59375 185.960938 68.824219 C 185.820312 68.964844 185.820312 68.824219 185.679688 68.683594 C 185.820312 69.808594 185.960938 70.9375 186.101562 72.066406 C 185.394531 73.050781 185.113281 74.460938 185.253906 75.589844 C 185.539062 77.84375 187.230469 78.972656 189.203125 79.960938 C 191.878906 81.367188 197.238281 85.738281 200.054688 84.328125 Z M 200.054688 84.328125 "/></g><path style=" stroke:none;fill-rule:nonzero;fill:#ffffff;fill-opacity:1;" d="M 211.191406 57.828125 C 211.753906 55.855469 210.910156 52.753906 208.792969 52.191406 C 208.230469 53.460938 207.667969 54.585938 207.242188 55.855469 C 208.089844 57.40625 209.78125 62.761719 211.191406 57.828125 Z M 211.191406 57.828125 "/><path style=" stroke:none;fill-rule:nonzero;fill:#ffffff;fill-opacity:1;" d="M 228.949219 45.707031 C 229.796875 46.554688 230.5 47.398438 230.785156 48.527344 C 231.207031 49.652344 230.640625 50.5 231.628906 51.488281 C 233.460938 53.179688 234.730469 51.769531 236.28125 51.0625 C 237.972656 50.21875 239.945312 50.359375 241.917969 51.203125 C 243.328125 51.769531 245.582031 55.152344 247.414062 53.460938 C 249.671875 51.488281 245.160156 48.667969 244.03125 47.539062 C 243.46875 46.976562 242.480469 46.269531 242.199219 45.566406 C 241.777344 44.722656 242.339844 43.734375 242.058594 42.886719 C 240.789062 39.503906 238.253906 42.183594 236.28125 42.746094 C 235.714844 42.886719 234.589844 42.886719 233.601562 42.746094 C 232.332031 41.902344 230.925781 41.195312 229.65625 40.351562 C 229.09375 39.789062 228.527344 39.222656 228.246094 38.660156 C 226.554688 37.8125 225.851562 39.929688 225.851562 41.339844 C 226.132812 43.59375 227.683594 44.296875 228.949219 45.707031 Z M 228.949219 45.707031 "/><path style=" stroke:none;fill-rule:nonzero;fill:#ffffff;fill-opacity:1;" d="M 218.378906 62.761719 C 220.210938 63.609375 221.199219 64.03125 223.171875 63.75 C 224.015625 63.609375 225.003906 63.042969 225.851562 63.042969 C 226.273438 63.042969 227.683594 63.46875 227.964844 63.1875 C 229.796875 62.199219 227.964844 54.585938 226.695312 52.894531 C 225.003906 50.640625 223.875 51.203125 223.03125 53.320312 C 222.75 54.023438 222.183594 55.152344 222.042969 55.996094 C 220.917969 55.011719 219.929688 54.164062 218.800781 53.179688 C 218.941406 51.910156 217.535156 51.769531 217.109375 53.179688 C 216.828125 54.164062 217.535156 55.855469 217.535156 56.84375 C 217.25 59.945312 214.011719 60.789062 218.378906 62.761719 Z M 218.378906 62.761719 "/><path style=" stroke:none;fill-rule:nonzero;fill:#ffffff;fill-opacity:1;" d="M 252.066406 54.726562 C 251.503906 57.40625 250.941406 62.058594 255.449219 58.957031 C 258.550781 56.84375 259.398438 54.023438 256.296875 52.050781 C 254.886719 52.894531 253.476562 53.742188 252.066406 54.726562 Z M 252.066406 54.726562 "/><g clip-rule="nonzero" clip-path="url(#b8a2735ac3)"><path style=" stroke:none;fill-rule:nonzero;fill:#ffffff;fill-opacity:1;" d="M 632.78125 575.269531 C 632.78125 573.4375 632.640625 571.746094 631.515625 570.335938 C 630.667969 569.207031 629.117188 568.644531 628.414062 567.515625 C 626.722656 564.980469 628.414062 563.710938 629.679688 561.738281 C 630.667969 560.1875 631.9375 556.097656 631.515625 554.265625 C 630.527344 550.460938 627.425781 554.265625 626.4375 555.957031 C 624.746094 554.125 625.3125 550.742188 626.15625 548.628906 C 626.863281 546.65625 628.554688 544.824219 628.976562 542.851562 C 629.398438 540.875 629.398438 538.199219 629.539062 536.085938 C 629.679688 533.828125 629.679688 531.714844 630.105469 529.601562 C 630.386719 527.769531 629.964844 524.527344 630.667969 523.117188 C 630.667969 522.835938 630.527344 522.550781 630.527344 522.269531 C 630.949219 521.003906 631.230469 519.875 631.371094 518.605469 C 631.796875 515.363281 631.230469 512.6875 630.105469 509.726562 C 628.695312 506.34375 627.566406 502.253906 625.59375 499.4375 C 623.621094 496.617188 621.363281 493.65625 620.660156 490.273438 C 619.390625 484.355469 621.082031 477.871094 619.390625 472.089844 C 618.6875 469.273438 617.417969 466.3125 616.289062 463.773438 C 615.023438 460.957031 613.191406 459.40625 611.355469 457.148438 C 608.398438 453.625 607.269531 449.820312 606 445.453125 C 604.734375 440.941406 603.042969 438.402344 599.375 435.300781 C 596.839844 433.1875 593.878906 431.074219 591.199219 429.242188 C 589.085938 427.972656 586.550781 426.988281 585.5625 424.730469 C 584.433594 422.335938 584.71875 420.078125 582.601562 418.105469 C 581.050781 416.554688 578.796875 415.003906 576.824219 413.878906 C 576.261719 413.597656 575.132812 412.890625 574.144531 412.328125 C 574.003906 411.621094 573.863281 411.058594 573.722656 410.496094 C 573.019531 408.378906 572.878906 406.546875 573.160156 404.292969 C 573.582031 400.769531 575.132812 396.964844 571.890625 394.566406 C 568.929688 392.3125 568.648438 392.171875 568.789062 388.363281 C 568.789062 387.097656 569.070312 384.980469 568.226562 383.855469 C 567.378906 382.867188 565.6875 382.726562 564.5625 382.304688 C 561.035156 380.753906 557.371094 377.371094 555.539062 373.988281 C 554.554688 372.15625 553.425781 369.757812 552.722656 367.785156 C 552.15625 366.234375 552.15625 363.980469 551.171875 362.710938 C 548.492188 359.609375 548.210938 365.109375 545.953125 365.25 C 543.980469 365.390625 541.164062 359.46875 540.175781 358.199219 C 539.046875 356.652344 537.640625 355.382812 536.652344 353.832031 C 535.523438 352.140625 536.089844 352.140625 536.230469 350.449219 C 536.511719 348.050781 535.804688 345.375 537.496094 343.402344 C 540.316406 344.386719 540.878906 349.179688 542.429688 351.433594 C 543.699219 353.125 546.519531 357.636719 547.222656 353.691406 C 547.789062 351.152344 546.519531 348.757812 545.8125 346.503906 C 544.96875 343.542969 543.980469 340.441406 542.855469 337.761719 C 540.597656 332.265625 538.625 326.769531 538.0625 320.847656 C 537.921875 318.875 538.0625 316.054688 537.355469 314.363281 C 535.945312 310.980469 534.398438 312.8125 532 311.6875 C 530.027344 310.699219 530.167969 308.726562 529.886719 306.894531 C 529.605469 305.203125 528.757812 303.511719 528.476562 301.960938 C 528.476562 301.679688 528.335938 301.257812 528.335938 300.691406 C 529.464844 301.960938 530.730469 303.089844 532.140625 303.371094 C 537.78125 304.355469 532.988281 296.039062 532.421875 293.363281 C 531.15625 287.441406 529.746094 282.226562 525.515625 277.574219 C 521.851562 273.628906 521.851562 278.140625 518.890625 279.550781 C 516.355469 280.675781 514.804688 279.125 514.804688 282.789062 C 514.804688 287.019531 512.691406 287.867188 508.460938 286.738281 C 506.207031 286.175781 505.078125 286.03125 502.824219 286.03125 C 501.273438 286.03125 500.285156 285.609375 499.160156 284.765625 C 496.761719 282.789062 495.777344 280.113281 492.25 279.832031 C 489.574219 279.691406 486.753906 283.214844 484.640625 281.242188 C 482.527344 279.265625 484.5 275.742188 486.050781 274.050781 C 489.292969 270.667969 490.84375 273.628906 493.941406 274.617188 C 496.339844 275.320312 498.171875 274.191406 498.03125 271.9375 C 498.03125 270.105469 496.621094 267.144531 497.042969 265.453125 C 497.609375 263.199219 499.160156 264.890625 500.707031 264.324219 C 504.796875 262.917969 504.9375 255.726562 503.808594 252.625 C 500.003906 242.335938 493.238281 233.597656 486.753906 224.859375 C 485.203125 225.140625 485.484375 226.832031 483.933594 226.550781 C 483.511719 226.550781 481.257812 224.4375 480.976562 224.15625 C 479.003906 221.757812 481.679688 221.757812 482.386719 219.785156 C 483.230469 217.671875 481.257812 216.402344 479.847656 214.429688 C 478.4375 212.457031 477.59375 210.339844 475.476562 209.074219 C 474.632812 209.777344 474.351562 211.1875 473.222656 211.046875 C 472.378906 210.90625 471.671875 209.636719 471.25 209.074219 C 469.839844 207.238281 468.710938 206.957031 466.878906 205.832031 C 465.46875 204.84375 463.214844 202.589844 462.652344 200.898438 C 462.371094 199.769531 462.933594 198.921875 462.652344 197.796875 C 462.230469 196.527344 460.679688 195.257812 459.972656 194.132812 C 458.703125 192.015625 454.476562 184.546875 451.796875 187.789062 C 450.386719 189.621094 451.515625 192.863281 449.683594 194.132812 C 448.273438 195.117188 446.019531 194.132812 444.890625 193.285156 C 443.339844 192.15625 441.367188 188.914062 441.085938 187.507812 C 440.523438 186.941406 440.097656 186.519531 439.535156 185.957031 C 439.675781 185.25 439.675781 184.6875 439.816406 183.984375 C 440.382812 181.023438 439.816406 179.894531 437.84375 177.5 C 436.714844 176.089844 434.742188 172.285156 438.546875 172.566406 C 442.917969 172.988281 442.777344 180.457031 445.878906 182.292969 C 449.121094 184.265625 447.992188 178.34375 447.289062 176.652344 C 445.878906 172.140625 443.339844 168.476562 440.945312 164.53125 C 439.957031 162.839844 439.113281 161.007812 437.5625 159.738281 C 435.589844 158.046875 436.011719 159.316406 434.320312 159.175781 C 431.78125 159.035156 430.375 155.226562 428.257812 153.675781 C 426.707031 152.550781 422.339844 150.578125 424.734375 148.039062 C 426.566406 146.066406 429.105469 148.886719 430.515625 149.589844 C 431.21875 147.898438 429.949219 145.21875 429.527344 143.527344 C 428.683594 140.429688 427.695312 137.046875 426.003906 134.367188 C 424.734375 132.394531 423.324219 129.855469 421.492188 128.304688 C 419.800781 126.898438 419.519531 127.460938 418.390625 128.445312 C 416.984375 129.714844 417.546875 130.28125 415.855469 128.730469 C 414.867188 127.742188 414.023438 126.332031 413.035156 125.207031 C 411.625 123.796875 405.847656 121.539062 407.960938 119.144531 C 409.511719 117.3125 412.191406 119.144531 413.601562 120.128906 C 415.007812 121.117188 418.675781 124.21875 418.675781 120.554688 C 418.675781 119.003906 415.996094 116.464844 414.867188 115.480469 C 412.894531 113.789062 410.5 112.519531 408.527344 110.96875 C 406.691406 109.558594 404.859375 108.007812 403.308594 106.316406 C 402.464844 105.472656 399.785156 100.960938 398.519531 103.214844 C 398.660156 104.484375 399.503906 105.894531 399.503906 107.023438 C 399.644531 107.023438 399.644531 106.882812 399.785156 106.882812 C 399.644531 107.726562 399.363281 108.714844 399.222656 109.558594 C 398.660156 108.996094 398.09375 108.574219 397.53125 108.007812 C 395.417969 106.316406 393.019531 104.90625 390.90625 103.214844 C 386.960938 100.117188 383.4375 96.589844 379.488281 93.492188 C 376.671875 91.234375 374.132812 90.390625 370.609375 90.390625 C 366.945312 90.390625 365.394531 88.273438 362.292969 86.441406 C 359.613281 84.890625 356.511719 83.625 353.554688 82.496094 C 349.890625 81.085938 346.363281 78.972656 342.417969 78.410156 C 339.175781 77.84375 336.921875 77.984375 335.933594 81.085938 C 334.808594 84.609375 334.382812 83.90625 331.140625 84.46875 C 328.605469 84.890625 326.914062 87.007812 324.375 87.710938 C 321.839844 88.417969 319.019531 88.839844 316.484375 88.839844 C 314.226562 88.839844 311.972656 88.132812 310 87.429688 C 307.601562 86.441406 307.179688 86.019531 307.179688 83.765625 C 307.460938 74.179688 297.03125 74.320312 290.6875 71.078125 C 287.445312 69.386719 285.050781 66.570312 281.667969 65.160156 C 278.707031 63.890625 275.042969 62.339844 272.222656 62.058594 C 272.082031 62.058594 271.941406 61.917969 271.800781 61.917969 C 275.183594 65.863281 279.269531 68.824219 283.078125 72.488281 C 286.742188 75.730469 291.535156 80.523438 292.519531 85.316406 C 294.496094 95.464844 262.640625 96.449219 267.429688 105.613281 C 268.417969 107.445312 269.40625 107.585938 269.261719 109.980469 C 269.121094 111.25 268.417969 112.519531 269.121094 113.789062 C 270.109375 115.621094 272.789062 115.761719 274.480469 116.183594 C 275.886719 116.464844 277.4375 116.746094 278.988281 117.171875 C 279.128906 117.734375 279.128906 118.15625 279.128906 118.722656 C 279.128906 118.722656 279.128906 118.582031 279.269531 118.582031 C 283.078125 122.246094 279.835938 126.753906 278.707031 130.84375 C 278.003906 133.519531 278.988281 136.339844 278.425781 139.160156 C 278.003906 141.835938 276.734375 144.375 275.886719 146.910156 C 275.324219 148.746094 274.480469 151.421875 274.621094 153.675781 C 273.351562 154.945312 272.222656 156.214844 271.378906 157.484375 C 269.828125 159.457031 269.828125 161.710938 269.546875 164.109375 C 269.261719 166.644531 268.558594 171.015625 267.289062 173.128906 C 265.738281 175.808594 263.203125 177.5 260.664062 179.191406 C 255.871094 182.433594 251.363281 186.097656 247.699219 190.464844 C 244.738281 193.992188 243.890625 198.078125 242.90625 202.589844 C 242.339844 205.265625 241.636719 207.945312 241.074219 210.621094 C 240.507812 212.597656 239.097656 215.132812 238.957031 217.105469 C 238.816406 219.503906 241.074219 222.746094 242.058594 224.859375 C 244.597656 230.355469 246.007812 236.277344 246.007812 242.335938 C 246.007812 244.875 245.441406 247.410156 244.878906 249.949219 C 244.175781 252.625 244.175781 255.585938 243.890625 258.40625 C 242.765625 259.675781 241.777344 260.941406 240.789062 262.351562 C 240.648438 264.75 240.085938 268.273438 238.394531 270.386719 C 236.421875 272.925781 233.601562 272.359375 232.050781 275.320312 C 230.21875 278.703125 228.808594 281.804688 228.527344 285.75 C 228.105469 290.683594 227.398438 295.054688 225.285156 299.5625 C 224.441406 301.398438 223.171875 302.945312 222.890625 305.0625 C 222.46875 307.878906 222.75 311.261719 222.890625 314.082031 C 223.171875 319.71875 221.902344 326.203125 219.507812 331.277344 C 218.660156 332.96875 216.6875 334.945312 216.265625 336.777344 C 215.703125 339.03125 217.675781 341.570312 218.519531 343.542969 C 220.070312 347.488281 221.902344 353.410156 219.367188 357.355469 C 217.816406 359.75 215.84375 360.738281 215.277344 363.839844 C 214.433594 367.785156 217.25 370.039062 219.226562 372.859375 C 221.199219 375.820312 222.183594 379.625 222.183594 382.867188 C 222.183594 383.855469 222.324219 384.699219 222.183594 385.6875 C 221.761719 385.96875 221.339844 386.390625 221.058594 386.671875 C 212.460938 390.621094 200.902344 381.882812 202.875 372.4375 C 203.296875 370.183594 204.003906 368.632812 203.15625 366.234375 C 202.453125 364.121094 200.902344 362.148438 200.761719 359.890625 C 200.621094 357.636719 201.605469 355.101562 201.746094 352.703125 C 202.027344 349.179688 202.027344 345.515625 202.734375 341.992188 C 203.578125 338.328125 205.269531 334.800781 205.976562 331.136719 C 206.539062 328.742188 207.101562 323.101562 205.128906 321.410156 C 201.605469 322.398438 199.773438 329.726562 198.222656 332.6875 C 197.09375 334.945312 195.546875 336.777344 194.980469 339.171875 C 194.277344 342.414062 194.417969 346.21875 194.839844 349.460938 C 195.402344 353.550781 195.261719 356.507812 194.417969 360.597656 C 193.855469 363.699219 193.996094 366.375 194.839844 369.335938 C 195.828125 373.28125 196.953125 377.230469 197.941406 381.175781 C 199.070312 385.265625 200.902344 388.789062 202.167969 392.875 C 203.296875 396.398438 204.003906 400.0625 204.988281 403.585938 C 205.410156 404.996094 206.117188 408.238281 207.101562 410.355469 C 207.527344 413.3125 208.230469 416.273438 209.359375 419.09375 C 211.191406 423.746094 212.601562 428.113281 213.023438 433.046875 C 213.445312 437.699219 213.164062 442.351562 213.867188 446.859375 C 214.433594 450.949219 213.726562 455.457031 214.855469 459.40625 C 216.125 463.773438 219.789062 469.976562 217.675781 474.488281 C 215.703125 474.488281 214.433594 469.554688 213.726562 467.722656 C 213.445312 466.875 212.601562 464.761719 211.472656 464.902344 C 210.0625 465.183594 210.0625 468.566406 210.203125 469.554688 C 210.628906 473.78125 212.460938 477.871094 213.445312 481.957031 C 214.574219 486.75 215.703125 491.261719 217.535156 495.914062 C 218.660156 498.871094 219.085938 503.101562 220.492188 506.484375 C 220.777344 509.445312 221.199219 512.542969 221.761719 515.644531 C 222.609375 520.578125 224.582031 525.792969 224.300781 530.867188 C 224.015625 535.238281 223.3125 538.761719 224.160156 543.132812 C 224.582031 545.527344 225.003906 547.925781 225.566406 550.320312 C 225.851562 551.730469 226.976562 556.664062 225.710938 557.933594 C 223.875 559.625 222.324219 554.265625 221.902344 553 C 220.917969 550.742188 219.648438 547.925781 217.675781 546.65625 C 215.984375 549.898438 217.675781 553.28125 218.378906 556.523438 C 219.367188 561.171875 221.339844 565.121094 222.890625 569.632812 C 224.160156 573.859375 225.003906 578.089844 226.132812 582.316406 C 226.554688 584.007812 227.402344 586.6875 228.386719 589.082031 C 227.824219 589.503906 227.257812 589.929688 226.695312 590.351562 C 225.003906 591.195312 222.609375 592.746094 221.761719 594.4375 C 220.632812 596.410156 222.042969 599.796875 222.609375 601.910156 C 222.890625 603.179688 223.03125 604.585938 223.59375 605.855469 C 224.300781 607.40625 224.863281 607.546875 225.992188 608.535156 C 228.105469 610.507812 227.542969 614.171875 227.683594 616.851562 C 227.964844 620.515625 228.949219 624.179688 229.09375 627.703125 C 229.234375 631.085938 227.964844 634.46875 229.65625 637.710938 C 230.359375 639.121094 231.769531 640.109375 232.757812 641.234375 C 234.730469 643.492188 236.421875 646.027344 238.394531 648.28125 C 241.496094 652.089844 241.355469 656.882812 243.046875 661.390625 C 244.738281 665.761719 245.300781 670.554688 246.992188 674.921875 C 247.558594 676.613281 248.542969 681.265625 249.8125 683.945312 C 249.671875 685.070312 249.53125 686.339844 249.390625 686.902344 C 249.25 689.863281 249.390625 691.976562 250.65625 694.65625 C 252.066406 697.617188 254.464844 700.4375 255.449219 703.394531 C 257.28125 708.328125 259.539062 713.542969 260.242188 718.757812 C 260.804688 722.988281 262.214844 727.21875 262.074219 731.445312 C 261.792969 736.660156 262.214844 739.480469 265.597656 743.566406 C 267.289062 745.683594 269.121094 747.796875 270.53125 750.191406 C 271.800781 752.589844 272.363281 755.40625 273.632812 757.804688 C 274.621094 759.636719 275.464844 762.03125 276.875 763.722656 C 279.128906 766.261719 281.949219 768.65625 284.910156 770.488281 C 291.253906 774.4375 297.878906 777.960938 304.359375 781.765625 C 307.460938 783.597656 309.578125 786.558594 312.675781 788.109375 C 314.226562 788.8125 315.917969 788.953125 317.46875 789.234375 C 319.582031 789.800781 321.839844 790.785156 323.953125 791.070312 C 327.898438 791.351562 331.707031 791.070312 335.652344 791.070312 C 336.074219 791.070312 336.640625 791.070312 337.0625 791.070312 C 341.289062 793.324219 345.660156 795.15625 350.453125 796.566406 C 353.976562 797.550781 356.511719 796.003906 359.898438 796.144531 C 364.125 796.285156 368.070312 797.695312 371.59375 800.230469 C 373.003906 801.21875 375.542969 803.753906 377.234375 803.050781 C 378.785156 802.34375 379.488281 798.960938 380.195312 797.550781 C 381.460938 795.15625 382.589844 793.746094 385.128906 793.183594 C 388.511719 792.476562 392.035156 792.195312 395.558594 792.054688 C 398.09375 791.914062 401.757812 792.054688 404.015625 790.929688 C 407.257812 789.238281 409.230469 785.289062 412.191406 782.894531 C 414.585938 780.921875 417.6875 778.664062 420.789062 778.664062 C 424.171875 778.523438 426.425781 778.523438 428.964844 775.847656 C 430.515625 774.15625 431.5 771.617188 434.039062 771.335938 C 436.011719 771.195312 437.421875 773.167969 439.535156 772.746094 C 442.355469 772.320312 445.03125 770.066406 447.851562 769.082031 C 450.671875 768.234375 453.488281 767.671875 456.308594 766.683594 C 461.804688 764.992188 467.585938 764.289062 472.941406 762.457031 C 475.621094 761.609375 477.59375 760.058594 480.410156 759.496094 C 482.949219 759.074219 485.484375 758.226562 487.742188 757.097656 C 489.714844 755.972656 491.6875 754.84375 493.378906 753.433594 C 496.199219 753.152344 499.015625 752.164062 502.117188 749.910156 C 505.785156 747.515625 509.589844 746.808594 513.535156 745.257812 C 515.789062 744.414062 517.90625 743.285156 520.300781 742.722656 C 522.414062 742.15625 524.53125 742.441406 526.503906 741.3125 C 528.757812 740.042969 530.167969 737.789062 532.421875 736.378906 C 534.253906 735.25 536.652344 734.96875 538.765625 734.546875 C 541.304688 733.984375 541.445312 732.574219 542.570312 730.316406 C 543.699219 727.921875 545.109375 727.074219 547.222656 725.527344 C 549.761719 723.835938 552.296875 722.847656 554.976562 721.4375 C 557.796875 719.886719 557.511719 717.632812 559.34375 715.375 C 560.894531 713.261719 564.703125 711.710938 567.097656 710.726562 C 571.1875 708.894531 574.570312 706.214844 577.953125 703.394531 C 579.925781 701.84375 580.207031 699.589844 582.039062 698.039062 C 583.167969 697.195312 584.71875 696.910156 585.703125 695.925781 C 587.675781 694.375 589.226562 692.121094 591.058594 690.429688 C 595.007812 686.621094 599.09375 683.238281 601.207031 678.023438 C 601.773438 676.472656 601.632812 674.640625 602.617188 673.230469 C 603.746094 671.820312 605.578125 671.117188 606.847656 669.847656 C 611.214844 665.339844 610.371094 659.558594 612.625 654.203125 C 613.894531 651.101562 614.597656 648 614.882812 644.617188 C 614.882812 643.914062 615.023438 643.351562 615.023438 642.644531 C 615.867188 641.515625 616.714844 640.390625 617.277344 639.542969 C 618.828125 637.148438 619.816406 635.316406 620.660156 632.636719 C 621.363281 630.242188 621.363281 627.703125 622.070312 625.589844 C 622.773438 623.476562 624.464844 622.066406 625.03125 619.808594 C 625.875 615.863281 622.492188 616.144531 621.648438 612.761719 C 620.941406 609.378906 624.605469 608.394531 625.875 606.417969 C 627.285156 604.164062 628.695312 601.769531 629.398438 599.230469 C 630.105469 596.695312 628.976562 594.578125 629.117188 592.042969 C 629.257812 589.644531 630.808594 587.390625 631.230469 584.996094 C 632.5 580.34375 632.78125 577.664062 632.78125 575.269531 Z M 632.78125 575.269531 "/></g><path style=" stroke:none;fill-rule:nonzero;fill:#ffffff;fill-opacity:1;" d="M 198.082031 156.214844 C 196.109375 156.636719 194.277344 157.765625 194.980469 159.878906 C 195.542969 161.851562 198.363281 163.121094 199.773438 164.25 C 201.886719 165.800781 203.4375 167.773438 205.976562 168.617188 C 210.484375 170.167969 214.996094 171.015625 218.941406 173.976562 C 224.441406 178.203125 228.386719 188.917969 236 189.902344 C 241.074219 190.464844 235.714844 184.546875 234.589844 183.136719 C 232.757812 181.023438 230.785156 178.625 229.65625 176.089844 C 229.375 175.527344 228.949219 174.539062 228.527344 173.691406 C 230.21875 174.398438 231.910156 175.527344 233.039062 176.230469 C 233.742188 176.652344 235.574219 178.625 236.28125 178.484375 C 237.550781 178.203125 237.125 176.792969 236.703125 175.949219 C 233.742188 169.464844 226.273438 164.953125 220.492188 161.289062 C 215.84375 158.328125 211.050781 159.597656 206.117188 157.90625 C 203.296875 156.777344 201.324219 155.511719 198.082031 156.214844 Z M 198.082031 156.214844 "/><g style="fill:#000000;fill-opacity:1;"><g transform="translate(401.050764, 416.249999)"><path style="stroke:none" d="M 3.9375 0.140625 C 3.382812 0.140625 2.945312 -0.015625 2.625 -0.328125 C 2.300781 -0.640625 2.140625 -1.050781 2.140625 -1.5625 C 2.140625 -2.070312 2.300781 -2.488281 2.625 -2.8125 C 2.945312 -3.144531 3.382812 -3.3125 3.9375 -3.3125 C 4.507812 -3.3125 4.953125 -3.15625 5.265625 -2.84375 C 5.585938 -2.53125 5.75 -2.113281 5.75 -1.59375 C 5.75 -1.082031 5.585938 -0.664062 5.265625 -0.34375 C 4.941406 -0.0195312 4.5 0.140625 3.9375 0.140625 Z M 3.9375 0.140625 "/></g></g></g></svg>